# xmcd CD database file
#
# Track frame offsets:
#	150
#	12620
#	21365
#	34380
#	51398
#	65732
#	75869
#	88514
#	102929
#	115662
#	132087
#	141445
#	154012
#	165519
#	178084
#	191757
#	202437
#	215514
#	227812
#	240307
#	256737
#	268632
#	289542
#	301801
#	317261
#
# Disc length: 4329 seconds
#
# Revision: 0
# Processed by: cddbd v1.5.2PL0 Copyright (c) Steve Scherf et al.
# Submitted via: CDex 1.51
#
DISCID=5f10e719
DTITLE=Various Artist - The 1920s PROHIBIPARTY 05.04.2002
DYEAR=2002
DGENRE=Jazz
TTITLE0=Erwin Hartung - Möbel-Hübner Marsch
TTITLE1=Yes Sir, Thats My Baby
TTITLE2=Squirrel Nut Zippers - Prince Nez
TTITLE3=Scott Joplin - The Entertainer
TTITLE4=Mills - Ellington
TTITLE5=Golden Nugget
TTITLE6=King Oliver and His Dixie Sycopators - Wa Wa Wa
TTITLE7=Jelly Roll Morton - Black Bottom Stomp
TTITLE8=Jimmy Lunceford - Uptown Blues
TTITLE9=Glenn Miller and His Orchestra - In The Mood
TTITLE10=Charleston
TTITLE11=BB - Mack The Knife
TTITLE12=Brilliant Püppi
TTITLE13=Cab Calloway and His Orchestra - The Scat Song
TTITLE14=Cab Calloway - The Calloway Boogie
TTITLE15=Charlston Time
TTITLE16=Jack Mcvea And His Door Openers
TTITLE17=Jimmy Lunceford - I Want The Waither (With The Water)
TTITLE18=He Was A Famous Tramper
TTITLE19=Max Raabe - Ich Breche Die Herzen
TTITLE20=Ella Fitzgerald - A Ticket A Tasket
TTITLE21=Woody Herman - The Preacher
TTITLE22=The Boswell Sisters - Rock´n´Roll
TTITLE23=Glenn Miller - Chattanooga Choo Choo
TTITLE24=Mitte Der 1920er - Das War Knorke
EXTD=YEAR: 2002
EXTT0=
EXTT1=
EXTT2=
EXTT3=
EXTT4=
EXTT5=
EXTT6=
EXTT7=
EXTT8=
EXTT9=
EXTT10=
EXTT11=
EXTT12=
EXTT13=
EXTT14=
EXTT15=
EXTT16=
EXTT17=
EXTT18=
EXTT19=
EXTT20=
EXTT21=
EXTT22=
EXTT23=
EXTT24=
PLAYORDER=
